<svg xmlns="http://www.w3.org/2000/svg" width="24" height="24" viewBox="0 0 24 24" fill="none">
  <circle cx="12" cy="12" r="12" fill="#FFE400"/>
  <path fill-rule="evenodd" clip-rule="evenodd" d="M11.8668 17.1014C15.7697 17.1014 18.9336 14.67 18.9336 11.6707C18.9336 8.67141 15.7697 6.23999 11.8668 6.23999C7.96391 6.23999 4.79999 8.67141 4.79999 11.6707C4.79999 13.5851 6.08895 15.2681 8.03632 16.2352L7.74735 17.7523C7.66189 18.2009 8.17315 18.5199 8.53852 18.2458L10.2539 16.9593C10.7719 17.0523 11.3119 17.1014 11.8668 17.1014Z" fill="#3F1D1D"/>
  <path fill-rule="evenodd" clip-rule="evenodd" d="M10.1815 10.3549C10.2341 10.2202 10.3729 10.1343 10.5119 10.1405C10.6539 10.1299 10.7977 10.2167 10.8515 10.3544L11.909 13.0608C11.9706 13.2184 11.891 13.3829 11.7312 13.4283C11.5715 13.4738 11.3921 13.3829 11.3305 13.2253L11.1861 12.8556H9.84737L9.70269 13.2259C9.64113 13.3835 9.46168 13.4744 9.30187 13.4289C9.14207 13.3835 9.06243 13.2189 9.12399 13.0613L10.1815 10.3549ZM10.0824 12.2542L10.5167 11.1426L10.9511 12.2542H10.0824ZM15.0259 13.4571C14.8598 13.4571 14.7251 13.3225 14.7251 13.1564V10.45C14.7251 10.2839 14.8598 10.1493 15.0259 10.1493C15.1919 10.1493 15.3266 10.2839 15.3266 10.45V11.431L16.4888 10.2716C16.5996 10.1611 16.7846 10.1668 16.9019 10.2844C17.0191 10.4019 17.0244 10.5869 16.9136 10.6974L15.9306 11.678L16.988 13.0216C17.0709 13.1268 17.0322 13.2954 16.9017 13.3981C16.7712 13.5008 16.5983 13.4988 16.5154 13.3935L15.5018 12.1057L15.3464 12.2608C15.34 12.2671 15.3334 12.2731 15.3266 12.2787V13.1564C15.3266 13.3225 15.1919 13.4571 15.0259 13.4571ZM6.60583 10.45C6.60583 10.2839 6.74047 10.1493 6.90655 10.1493H9.31227C9.47835 10.1493 9.61299 10.2839 9.61299 10.45C9.61299 10.6161 9.47835 10.7507 9.31227 10.7507L8.41013 10.7507L8.41013 13.1564C8.41013 13.3225 8.27549 13.4572 8.10941 13.4572C7.94333 13.4572 7.8087 13.3225 7.8087 13.1564L7.8087 10.7507H6.90655C6.74047 10.7507 6.60583 10.6161 6.60583 10.45ZM12.6201 13.4572C12.4541 13.4572 12.3194 13.3225 12.3194 13.1564V10.45C12.3194 10.2839 12.4541 10.1493 12.6201 10.1493C12.7862 10.1493 12.9209 10.2839 12.9209 10.45V12.8557L14.1237 12.8557C14.2898 12.8557 14.4244 12.9904 14.4244 13.1564C14.4244 13.3225 14.2898 13.4572 14.1237 13.4572L12.6201 13.4572Z" fill="#FFE400"/>
</svg>