<svg width="14" height="14" viewBox="0 0 14 14" fill="none" xmlns="http://www.w3.org/2000/svg">
<g clip-path="url(#clip0_1_682)">
<path d="M1.67773 10.5675C1.70453 10.3263 1.71793 10.2057 1.75442 10.0929C1.7868 9.99292 1.83254 9.89774 1.89041 9.80999C1.95564 9.71107 2.04144 9.62527 2.21305 9.45366L9.91672 1.75C10.5611 1.10567 11.6057 1.10567 12.2501 1.75C12.8944 2.39434 12.8944 3.43901 12.2501 4.08334L4.54638 11.787C4.37478 11.9586 4.28897 12.0444 4.19006 12.1096C4.1023 12.1675 4.00713 12.2132 3.90712 12.2456C3.79439 12.2821 3.67379 12.2955 3.43259 12.3223L1.45837 12.5417L1.67773 10.5675Z" stroke="#5849FF" stroke-width="1.6" stroke-linecap="round" stroke-linejoin="round"/>
</g>
<defs>
<clipPath id="clip0_1_682">
<rect width="14" height="14" fill="white"/>
</clipPath>
</defs>
</svg>
