<svg width="24" height="24" viewBox="0 0 24 24" fill="none" xmlns="http://www.w3.org/2000/svg">
<path fill-rule="evenodd" clip-rule="evenodd" d="M17.04 10.74C17.04 14.2194 14.2194 17.04 10.74 17.04C7.26061 17.04 4.44 14.2194 4.44 10.74C4.44 7.2606 7.26061 4.44 10.74 4.44C14.2194 4.44 17.04 7.2606 17.04 10.74ZM15.6803 16.6985C14.3399 17.8111 12.6181 18.48 10.74 18.48C6.46532 18.48 3 15.0147 3 10.74C3 6.46531 6.46532 3 10.74 3C15.0147 3 18.48 6.46531 18.48 10.74C18.48 12.6181 17.8111 14.3399 16.6985 15.6803L20.7891 19.7709C21.0703 20.0521 21.0703 20.5079 20.7891 20.7891C20.5079 21.0703 20.0521 21.0703 19.7709 20.7891L15.6803 16.6985Z" fill="#333333"/>
</svg>
