<svg width="30" height="30" viewBox="0 0 30 30" fill="none" xmlns="http://www.w3.org/2000/svg">
<circle cx="15" cy="15" r="15" fill="#EDEDED"/>
<path d="M17.5421 12.5H9.58333C8.43274 12.5 7.5 11.5673 7.5 10.4167C7.5 9.26607 8.43274 8.33333 9.58333 8.33333H17.5421M12.4579 21.6667H20.4167C21.5673 21.6667 22.5 20.7339 22.5 19.5833C22.5 18.4327 21.5673 17.5 20.4167 17.5H12.4579M7.5 19.5833C7.5 21.1942 8.80584 22.5 10.4167 22.5C12.0275 22.5 13.3333 21.1942 13.3333 19.5833C13.3333 17.9725 12.0275 16.6667 10.4167 16.6667C8.80584 16.6667 7.5 17.9725 7.5 19.5833ZM22.5 10.4167C22.5 12.0275 21.1942 13.3333 19.5833 13.3333C17.9725 13.3333 16.6667 12.0275 16.6667 10.4167C16.6667 8.80584 17.9725 7.5 19.5833 7.5C21.1942 7.5 22.5 8.80584 22.5 10.4167Z" stroke="#333333" stroke-width="1.5" stroke-linecap="round" stroke-linejoin="round"/>
</svg>
