<svg xmlns="http://www.w3.org/2000/svg" width="16" height="14" viewBox="0 0 16 14" fill="none">
  <path d="M7.87636 4.45458L10.1818 6.75276C10.1818 6.7164 10.1818 6.67276 10.1818 6.6364C10.1818 6.05774 9.95195 5.50279 9.54278 5.09362C9.13361 4.68445 8.57865 4.45458 8 4.45458C7.95636 4.45458 7.92 4.45458 7.87636 4.45458ZM4.74909 5.0364L5.87636 6.16367C5.84 6.3164 5.81818 6.46912 5.81818 6.6364C5.81818 7.21505 6.04805 7.77001 6.45722 8.17918C6.86639 8.58835 7.42135 8.81822 8 8.81822C8.16 8.81822 8.32 8.7964 8.47273 8.76003L9.6 9.88731C9.11273 10.1273 8.57455 10.2728 8 10.2728C7.03558 10.2728 6.11065 9.88964 5.4287 9.2077C4.74675 8.52574 4.36364 7.60082 4.36364 6.6364C4.36364 6.06185 4.50909 5.52367 4.74909 5.0364ZM0.727273 1.01458L2.38545 2.67276L2.71273 3.00003C1.51273 3.94549 0.567273 5.18185 0 6.6364C1.25818 9.82912 4.36364 12.0909 8 12.0909C9.12727 12.0909 10.2036 11.8728 11.1855 11.48L11.4982 11.7855L13.6218 13.9091L14.5455 12.9855L1.65091 0.0909424M8 3.00003C8.96442 3.00003 9.88935 3.38315 10.5713 4.0651C11.2532 4.74705 11.6364 5.67197 11.6364 6.6364C11.6364 7.10185 11.5418 7.55276 11.3745 7.96003L13.5055 10.0909C14.5964 9.18185 15.4691 7.98912 16 6.6364C14.7418 3.44367 11.6364 1.18185 8 1.18185C6.98182 1.18185 6.00727 1.36367 5.09091 1.69094L6.66909 3.25458C7.08364 3.09458 7.52727 3.00003 8 3.00003Z" fill="#787878"/>
</svg>